<svg width="25" height="24" viewBox="0 0 25 24" fill="none" xmlns="http://www.w3.org/2000/svg">
    <path fill-rule="evenodd" clip-rule="evenodd" d="M14.5141 7.49945L12.0113 9.99992L9.50847 7.49945C9.23225 7.22349 8.78468 7.22349 8.50847 7.49945C8.23188 7.77578 8.23188 8.22407 8.50847 8.50039L11.3045 11.2938C11.695 11.6839 12.3276 11.6839 12.7181 11.2938L15.5141 8.50039C15.7907 8.22407 15.7907 7.77578 15.5141 7.49945C15.2379 7.22349 14.7903 7.22349 14.5141 7.49945ZM14.5141 13.4994L12.0113 15.9999L9.50847 13.4994C9.23225 13.2235 8.78468 13.2235 8.50847 13.4994C8.23188 13.7758 8.23188 14.2241 8.50847 14.5004L11.3045 17.2938C11.695 17.6839 12.3276 17.6839 12.7181 17.2938L15.5141 14.5004C15.7907 14.2241 15.7907 13.7758 15.5141 13.4994C15.2379 13.2235 14.7903 13.2235 14.5141 13.4994Z" fill="#41F6D7"/>
</svg>
